<svg xmlns="http://www.w3.org/2000/svg" viewBox="0 0 512 512" id="deadline"><path fill="none" stroke="#464668" stroke-linecap="round" stroke-linejoin="round" stroke-miterlimit="10" stroke-width="10" d="M180.941 323.74v4.38l-1.85-1.85c.43-1.1 1.08-1.92 1.85-2.53zM288.411 405c-.09 1.01-.28 2-.57 2.94-1.82 6-7.4 10.37-14 10.37-7.64 0-13.9-5.85-14.56-13.31-.05-.44-.07-.88-.07-1.32 0-1.15.14-2.27.39-3.35 1.51-6.47 7.31-11.28 14.24-11.28 8.08 0 14.63 6.55 14.63 14.63 0 .45-.02.89-.06 1.32zm11.07-123v23.63c-8.36-2.25-17.15-3.45-26.23-3.45-9.07 0-17.87 1.2-26.23 3.45V282h52.46z"></path><path fill="none" stroke="#464668" stroke-linecap="round" stroke-linejoin="round" stroke-miterlimit="10" stroke-width="10" d="M193.751 340.93c-3.75 4.8-7.08 9.94-9.93 15.37l-2.88-2.88-14.5-14.49c-5.87 2.87-3.26 10.53-4.92 10.53-.41 0-1.09-.47-2.24-1.62-8.16-8.16-8.16-21.39 0-29.55 3.9-3.9 8.97-5.94 14.09-6.11.34-.01.68-.01 1.02 0a20.792 20.792 0 0 1 14.45 6.11c5.17 5.17-3.43 1.88-7.9 5.45-.77.61-1.42 1.43-1.85 2.53l14.66 14.66zm80.09-20.85c46.17 0 83.6 37.43 83.6 83.6 0 .44 0 .88-.02 1.32m-68.95-1.32c0 .45-.02.89-.06 1.32-.09 1.01-.28 2-.57 2.94-1.82 6-7.4 10.37-14 10.37-7.64 0-13.9-5.85-14.56-13.31-.05-.44-.07-.88-.07-1.32 0-1.15.14-2.27.39-3.35 1.51-6.47 7.31-11.28 14.24-11.28 8.08 0 14.63 6.55 14.63 14.63zM259.598 400.329l-65.174-17.547M303.102 412.042l-15.257-4.106M236.661 36s0-27 27-27 27 27 27 27h-54zm91.97 33.2v43.36h-129.94V69.2c0-1.77.14-3.5.41-5.2 2.51-15.81 16.3-28 32.79-28h63.54c16.49 0 30.28 12.19 32.79 28 .27 1.7.41 3.43.41 5.2z"></path><path fill="none" stroke="#464668" stroke-linecap="round" stroke-linejoin="round" stroke-miterlimit="10" stroke-width="10" d="M451.631 76v416c0 6.6-5.4 12-12 12H87.691c-6.6 0-12-5.4-12-12V76c0-6.6 5.4-12 12-12h111.41c-.27 1.7-.41 3.43-.41 5.2v43.36h129.94V69.2c0-1.77-.14-3.5-.41-5.2h111.41c6.6 0 12 5.4 12 12z"></path><path fill="none" stroke="#464668" stroke-linecap="round" stroke-linejoin="round" stroke-miterlimit="10" stroke-width="10" d="M374.161 403.09c0 .64-.01 1.27-.02 1.91-.58 30.92-15.06 58.44-37.46 76.57-17.33 14.03-39.39 22.43-63.43 22.43s-46.1-8.4-63.43-22.43c-22.4-18.13-36.88-45.65-37.46-76.57-.01-.64-.02-1.27-.02-1.91 0-6.73.66-13.3 1.92-19.66a99.522 99.522 0 0 1 6.68-21.16c.9-2.03 1.86-4.02 2.88-5.97 2.85-5.43 6.18-10.57 9.93-15.37 7.16-9.14 15.86-17.01 25.71-23.23a99.61 99.61 0 0 1 18.44-9.15 100.839 100.839 0 0 1 35.35-6.37c9.08 0 17.87 1.2 26.23 3.45 4.26 1.14 8.41 2.56 12.43 4.23 5.59 2.32 10.92 5.12 15.95 8.37a101.28 101.28 0 0 1 33.33 35.36c2.31 4.06 4.33 8.31 6.05 12.7 4.47 11.4 6.92 23.81 6.92 36.8z"></path><path fill="none" stroke="#464668" stroke-linecap="round" stroke-linejoin="round" stroke-miterlimit="10" stroke-width="10" d="M423.531 86.43v395.14h-86.85c22.4-18.13 36.88-45.65 37.46-76.57.01-.64.02-1.27.02-1.91 0-12.99-2.45-25.4-6.92-36.8a97.913 97.913 0 0 0-6.05-12.7 101.28 101.28 0 0 0-33.33-35.36c-5.03-3.25-10.36-6.05-15.95-8.37a99.347 99.347 0 0 0-12.43-4.23c-8.36-2.25-17.15-3.45-26.23-3.45a100.839 100.839 0 0 0-35.35 6.37 99.61 99.61 0 0 0-18.44 9.15 101.553 101.553 0 0 0-25.71 23.23c-3.75 4.8-7.08 9.94-9.93 15.37-1.02 1.95-1.98 3.94-2.88 5.97a99.522 99.522 0 0 0-6.68 21.16 101.06 101.06 0 0 0-1.92 19.66c0 .64.01 1.27.02 1.91.58 30.92 15.06 58.44 37.46 76.57h-106.03V86.43h94.9v26.13h129.94V86.43h94.9zM467.181 504H58.425M483.622 504h8.504M41.984 504h-22.11"></path></svg>