<svg width="43" height="43" viewBox="0 0 43 43" fill="none" xmlns="http://www.w3.org/2000/svg">
<circle cx="21.5" cy="21.5" r="21" stroke="black" stroke-opacity="0.1"/>
<path d="M33.6317 29.3852C33.6317 29.8052 33.5384 30.2368 33.34 30.6568C33.1417 31.0768 32.885 31.4735 32.5467 31.8468C31.975 32.4768 31.345 32.9318 30.6334 33.2235C29.9334 33.5152 29.175 33.6668 28.3584 33.6668C27.1684 33.6668 25.8967 33.3868 24.555 32.8152C23.2134 32.2435 21.8717 31.4735 20.5417 30.5052C19.2 29.5252 17.9284 28.4402 16.715 27.2385C15.5134 26.0252 14.4284 24.7535 13.46 23.4235C12.5034 22.0935 11.7334 20.7635 11.1734 19.4452C10.6134 18.1152 10.3334 16.8435 10.3334 15.6302C10.3334 14.8368 10.4734 14.0785 10.7534 13.3785C11.0334 12.6668 11.4767 12.0135 12.095 11.4302C12.8417 10.6952 13.6584 10.3335 14.5217 10.3335C14.8484 10.3335 15.175 10.4035 15.4667 10.5435C15.77 10.6835 16.0384 10.8935 16.2484 11.1968L18.955 15.0118C19.165 15.3035 19.3167 15.5718 19.4217 15.8285C19.5267 16.0735 19.585 16.3185 19.585 16.5402C19.585 16.8202 19.5034 17.1002 19.34 17.3685C19.1884 17.6368 18.9667 17.9168 18.6867 18.1968L17.8 19.1185C17.6717 19.2468 17.6134 19.3985 17.6134 19.5852C17.6134 19.6785 17.625 19.7602 17.6484 19.8535C17.6834 19.9468 17.7184 20.0168 17.7417 20.0868C17.9517 20.4718 18.3134 20.9735 18.8267 21.5802C19.3517 22.1868 19.9117 22.8052 20.5184 23.4235C21.1484 24.0418 21.755 24.6135 22.3734 25.1385C22.98 25.6518 23.4817 26.0018 23.8784 26.2118C23.9367 26.2352 24.0067 26.2702 24.0884 26.3052C24.1817 26.3402 24.275 26.3518 24.38 26.3518C24.5784 26.3518 24.73 26.2818 24.8584 26.1535L25.745 25.2785C26.0367 24.9868 26.3167 24.7652 26.585 24.6252C26.8534 24.4618 27.1217 24.3802 27.4134 24.3802C27.635 24.3802 27.8684 24.4268 28.125 24.5318C28.3817 24.6368 28.65 24.7885 28.9417 24.9868L32.8034 27.7285C33.1067 27.9385 33.3167 28.1835 33.445 28.4752C33.5617 28.7668 33.6317 29.0585 33.6317 29.3852Z" fill="black" stroke="black" stroke-miterlimit="10"/>
<path d="M29.5833 18.5003C29.5833 17.8003 29.035 16.727 28.2183 15.852C27.4717 15.047 26.48 14.417 25.5 14.417" stroke="black" stroke-linecap="round" stroke-linejoin="round"/>
<path d="M33.6667 18.5002C33.6667 13.9852 30.015 10.3335 25.5 10.3335" stroke="black" stroke-linecap="round" stroke-linejoin="round"/>
</svg>
